<svg xmlns="http://www.w3.org/2000/svg" viewBox="0 0 500 123.63"><defs><style>.cls-1{fill:#bece49;}.cls-2{fill:#ebf0c8;}.cls-3{fill:#0e3651;}.cls-4{fill:#fff;}</style></defs><path class="cls-1" d="M257.68,12.56l-4.2,10.9,4.4,9.92v0L267.81,29l6.3-16.38Zm2.61,14.6h0a3.08,3.08,0,0,1,2.21-5.75h0a3.08,3.08,0,1,1-2.21,5.74Z"></path><path class="cls-2" d="M267.81,29l6.3-16.38-8.21,0h0l-3.39,8.83h0a3.08,3.08,0,1,1-2.21,5.74h0l-2.4,6.22v0Z"></path><path class="cls-1" d="M341.85,75.27V49.18h11c8.21,0,14.12,4.93,14.12,13S361,75.27,352.85,75.27ZM360,62.2c0-4-2.42-7.15-7.19-7.15h-4.27V69.4h4.23A6.92,6.92,0,0,0,360,62.2Z"></path><path class="cls-1" d="M379.32,75.27V49.18h19.13v5.87h-12.4v4.06h12.12V65H386.05V69.4h12.4v5.87Z"></path><path class="cls-1" d="M429.78,75.27l-1.29-3.76H418.2l-1.29,3.76h-7.63l9.82-26.09h8.45l9.86,26.09Zm-6.45-19.44L420,65.65h6.65Z"></path><path class="cls-1" d="M449,75.27V49.18h6.73V69.4h10.48v5.87Z"></path><path class="cls-1" d="M477.55,71.59l3.56-5A11.8,11.8,0,0,0,489.44,70c2.31,0,3.71-.9,3.71-2.15,0-3.56-14.78-.71-14.78-10.76,0-4.38,3.71-8.29,10.4-8.29a15.92,15.92,0,0,1,10.6,3.63l-3.67,4.82a12.29,12.29,0,0,0-7.63-2.7c-2,0-2.82.78-2.82,1.87,0,3.33,14.75.9,14.75,10.6,0,5.25-3.87,8.73-10.87,8.73C483.84,75.74,480.17,74.09,477.55,71.59Z"></path><polygon class="cls-3" points="185.21 74.06 185.21 74.06 185.21 74.07 185.21 74.06"></polygon><polygon class="cls-3" points="185.34 74.37 185.33 74.37 185.34 74.38 185.34 74.37"></polygon><path class="cls-4" d="M220.45,24.42H196.8a1.24,1.24,0,0,0-1.24,1.24l0,9.44a1.24,1.24,0,0,0,1.24,1.24h5.3v63a1.24,1.24,0,0,0,1.23,1.24h17.15c23.49,0,40.74-14.16,40.74-38.2S243.94,24.42,220.45,24.42Zm-.75,64.27h-3.56V36.33h3.56c15,0,26.9,9.12,26.9,26.07C246.6,79.57,234.93,88.69,219.7,88.69Z"></path><path class="cls-4" d="M298.84,56.52c-11.21-4.25-15.19-6.73-15.19-12.16v-.11c0-4.72,4.14-7.89,10.31-7.89,5.26,0,10.81,2.3,16.5,6.83l.07.05a1.17,1.17,0,0,0,1.65-.19l6.56-8.68a1.1,1.1,0,0,0-.17-1.51l-.12-.1a36.1,36.1,0,0,0-24.17-8.83c-14.49,0-24.62,8.79-24.62,21.38v.21c0,12.38,7.81,17.61,22.23,22.92,11.84,4.28,14,7.2,14,11.41V80c0,5.22-4.49,8.73-11.17,8.73S282.05,86,275.33,80.1l-.17-.15a1.16,1.16,0,0,0-1.64.14l-7,8.49a1.1,1.1,0,0,0,.14,1.54l.18.16a40.35,40.35,0,0,0,27.74,10.84c14.81,0,25.16-9.05,25.16-22V78.9c0-5.54-1.65-9.8-5.18-13.4C311.35,62.2,306.35,59.34,298.84,56.52Z"></path><path class="cls-3" d="M135.24,84.26h0Z"></path><path class="cls-4" d="M196.54,99.21,165.45,25.77a2,2,0,0,0-1.89-1.24H153.15a2,2,0,0,0-1.88,1.24L130,76l-2.18,5.14a1.47,1.47,0,0,0,.42,1.72,5.7,5.7,0,0,0,2.28,1.1h0a30.06,30.06,0,0,0,4.55.32h5.38a1.15,1.15,0,0,0,1.08-.73l2.24-5.7h29l8.33,21.23a2.44,2.44,0,0,0,2.28,1.55h12.18A1,1,0,0,0,196.54,99.21ZM148.23,66.64l10.12-25.73,10.1,25.73Z"></path><path class="cls-4" d="M131.2,89.62A33,33,0,0,1,126,89l-.25-.06-.63-.19c-.23-.08-.46-.16-.67-.25a9.62,9.62,0,0,1-1-.46.09.09,0,0,1,0,0,9.86,9.86,0,0,1-3.77-3.6c-2.64-4.2-4.72-13.69-9.63-16.75a14.93,14.93,0,0,0,4.39-2.56c3.69-3.05,7.27-8.62,7.27-17.65,0-.34,0-.68,0-1a22.86,22.86,0,0,0-4.76-13.85,21.25,21.25,0,0,0-11.39-7.15A29.25,29.25,0,0,0,98,24.53H65.64a1.25,1.25,0,0,0-1.26,1.25l0,9.32a1.26,1.26,0,0,0,1.26,1.26h5.2l.06,63.05a1.24,1.24,0,0,0,1.23,1.24H83.66a1.23,1.23,0,0,0,1.23-1.23V72.29h8.7a7.7,7.7,0,0,1,5.31,2.1c1.8,1.76,2.53,3.55,3.64,6,1.83,3.94,2.23,6,4.82,10.39,2.82,4.82,6.37,8,11.13,9l.1,0c2.75.59,10.13.83,13.55.86h1.18a2.33,2.33,0,0,0,2.17-1.48l3.35-8.54a.74.74,0,0,0-.69-1ZM95.89,60.24H84.73l0-23.86,11.41,0c6.87,0,11.05,4.29,11.05,11.79S103,60.24,95.89,60.24Z"></path><path class="cls-4" d="M46.77,60.42l-.26-.08.26-.14c4.61-2.36,9.28-7.64,9.28-16.11,0-12.54-9.86-19.62-23.59-19.62H1.23A1.23,1.23,0,0,0,0,25.7v9.44a1.23,1.23,0,0,0,1.23,1.23H6.52v63a1.23,1.23,0,0,0,1.23,1.24h25c14.16,0,26.27-6.87,26.27-22.09C59.05,70.79,55,62.88,46.77,60.42ZM20.56,36.37H32.77c6.22,0,9.44,4,9.44,9.44S38.88,55.56,33,55.56H20.56ZM34.27,88.69s-13.71,0-13.71,0V66.72H34.27C41,66.72,45,71.33,45,77.65S41.13,88.69,34.27,88.69Z"></path></svg>